<svg width="351" height="196" viewBox="0 0 351 196" fill="none" xmlns="http://www.w3.org/2000/svg">
<path d="M1 1V179H349.322" stroke="#D6DAE0" stroke-width="2" stroke-linecap="round"/>
<path d="M1 51.5H349.322" stroke="black" stroke-opacity="0.1" stroke-linecap="round" stroke-dasharray="2 2"/>
<path d="M1 26.5H349.322" stroke="black" stroke-opacity="0.1" stroke-linecap="round" stroke-dasharray="2 2"/>
<path d="M1 1.5H349.322" stroke="black" stroke-opacity="0.1" stroke-linecap="round" stroke-dasharray="2 2"/>
<path d="M1 76.5H349.322" stroke="black" stroke-opacity="0.1" stroke-linecap="round" stroke-dasharray="2 2"/>
<path d="M1 101.5H349.322" stroke="black" stroke-opacity="0.1" stroke-linecap="round" stroke-dasharray="2 2"/>
<path d="M1 126.5H349.322" stroke="black" stroke-opacity="0.1" stroke-linecap="round" stroke-dasharray="2 2"/>
<path d="M1 151.5H349.322" stroke="black" stroke-opacity="0.1" stroke-linecap="round" stroke-dasharray="2 2"/>
<rect x="11.0674" y="99.5" width="20.1342" height="78" fill="#557AFF"/>
<rect x="11.0674" y="90.5" width="10.0671" height="87" fill="#BED0FF"/>
<rect x="49.3223" y="76.5" width="10.0671" height="101" fill="#557AFF"/>
<rect x="77.5103" y="43.5" width="10.0671" height="134" fill="#557AFF"/>
<rect x="105.698" y="51.5" width="10.0671" height="126" fill="#557AFF"/>
<rect x="123.819" y="83.5" width="20.1342" height="94" fill="#557AFF"/>
<rect x="162.074" y="26.5" width="10.0671" height="151" fill="#557AFF"/>
<rect x="180.195" y="61.5" width="20.1342" height="116" fill="#557AFF"/>
<rect x="218.45" y="76.5" width="10.0671" height="101" fill="#557AFF"/>
<rect x="236.571" y="76.5" width="20.1342" height="101" fill="#557AFF"/>
<rect x="264.758" y="99.5" width="20.1342" height="78" fill="#557AFF"/>
<rect x="292.946" y="76.5" width="20.1342" height="101" fill="#557AFF"/>
<rect x="321.134" y="99.5" width="20.1342" height="78" fill="#557AFF"/>
<path d="M12.1436 191.605C13.3872 191.605 14.1211 190.872 14.1211 189.624V185.159H13.1367V189.615C13.1367 190.34 12.7852 190.727 12.1348 190.727C11.5459 190.727 11.2427 190.349 11.2031 189.865L11.1987 189.826H10.2275L10.2319 189.878C10.2847 190.889 10.9702 191.605 12.1436 191.605ZM15.1019 191.5H16.1346L16.719 189.786H19.1624L19.7425 191.5H20.7752L18.4725 185.159H17.409L15.1019 191.5ZM17.9319 186.209H17.9495L18.8943 188.995H16.9827L17.9319 186.209ZM21.8702 191.5H22.8458V186.802H22.8722L26.1373 191.5H27.0426V185.159H26.067V189.848H26.0406L22.7799 185.159H21.8702V191.5Z" fill="#606C96"/>
<path d="M40.8462 191.5H41.8306V188.846H44.5552V188.015H41.8306V186.007H44.8057V185.159H40.8462V191.5ZM46.0545 191.5H50.0799V190.652H47.0389V188.683H49.9173V187.857H47.0389V186.007H50.0799V185.159H46.0545V191.5ZM51.4825 191.5H54.0269C55.3761 191.5 56.1891 190.823 56.1891 189.711V189.703C56.1891 188.868 55.6046 188.248 54.7037 188.156V188.138C55.3717 188.042 55.877 187.422 55.877 186.754V186.745C55.877 185.787 55.1388 185.159 54.0138 185.159H51.4825V191.5ZM53.7765 185.963C54.4884 185.963 54.8971 186.284 54.8971 186.864V186.873C54.8971 187.51 54.4269 187.861 53.5567 187.861H52.4669V185.963H53.7765ZM53.7589 188.622C54.6993 188.622 55.1827 188.973 55.1827 189.654V189.663C55.1827 190.34 54.7081 190.696 53.8248 190.696H52.4669V188.622H53.7589Z" fill="#606C96"/>
<path d="M68.0278 191.5H68.9243V186.82H68.9551L70.8667 191.5H71.5962L73.5078 186.82H73.5386V191.5H74.4351V185.159H73.3013L71.2446 190.221H71.2183L69.166 185.159H68.0278V191.5ZM75.5257 191.5H76.5584L77.1429 189.786H79.5862L80.1663 191.5H81.199L78.8963 185.159H77.8328L75.5257 191.5ZM78.3558 186.209H78.3733L79.3182 188.995H77.4065L78.3558 186.209ZM82.294 191.5H83.2784V189.065H84.6319L85.9239 191.5H87.0577L85.6383 188.916C86.3985 188.657 86.8687 187.971 86.8687 187.11V187.101C86.8687 185.91 86.0514 185.159 84.755 185.159H82.294V191.5ZM83.2784 188.257V185.985H84.6319C85.3878 185.985 85.8536 186.407 85.8536 187.11V187.119C85.8536 187.839 85.4185 188.257 84.6583 188.257H83.2784Z" fill="#606C96"/>
<path d="M96.752 191.5H97.7847L98.3691 189.786H100.812L101.393 191.5H102.425L100.123 185.159H99.0591L96.752 191.5ZM99.582 186.209H99.5996L100.544 188.995H98.6328L99.582 186.209ZM103.52 191.5H104.505V189.333H105.88C107.124 189.333 107.985 188.485 107.985 187.246V187.237C107.985 185.994 107.124 185.159 105.88 185.159H103.52V191.5ZM105.634 185.989C106.491 185.989 106.983 186.451 106.983 187.242V187.25C106.983 188.046 106.491 188.507 105.634 188.507H104.505V185.989H105.634ZM109.238 191.5H110.223V189.065H111.576L112.868 191.5H114.002L112.583 188.916C113.343 188.657 113.813 187.971 113.813 187.11V187.101C113.813 185.91 112.996 185.159 111.699 185.159H109.238V191.5ZM110.223 188.257V185.985H111.576C112.332 185.985 112.798 186.407 112.798 187.11V187.119C112.798 187.839 112.363 188.257 111.603 188.257H110.223Z" fill="#606C96"/>
<path d="M125.41 191.5H126.306V186.82H126.337L128.249 191.5H128.978L130.89 186.82H130.92V191.5H131.817V185.159H130.683L128.626 190.221H128.6L126.548 185.159H125.41V191.5ZM132.908 191.5H133.94L134.525 189.786H136.968L137.548 191.5H138.581L136.278 185.159H135.215L132.908 191.5ZM135.738 186.209H135.755L136.7 188.995H134.788L135.738 186.209ZM140.612 191.5H141.596V188.903L143.833 185.159H142.739L141.122 187.958H141.091L139.474 185.159H138.379L140.612 188.903V191.5Z" fill="#606C96"/>
<path d="M155.096 191.605C156.34 191.605 157.074 190.872 157.074 189.624V185.159H156.089V189.615C156.089 190.34 155.738 190.727 155.087 190.727C154.499 190.727 154.195 190.349 154.156 189.865L154.151 189.826H153.18L153.185 189.878C153.237 190.889 153.923 191.605 155.096 191.605ZM161.219 191.605C162.814 191.605 163.781 190.661 163.781 189.272V185.159H162.801V189.193C162.801 190.116 162.229 190.735 161.219 190.735C160.208 190.735 159.632 190.116 159.632 189.193V185.159H158.648V189.272C158.648 190.661 159.628 191.605 161.219 191.605ZM165.341 191.5H166.317V186.802H166.343L169.608 191.5H170.514V185.159H169.538V189.848H169.512L166.251 185.159H165.341V191.5Z" fill="#606C96"/>
<path d="M183.284 191.605C184.528 191.605 185.262 190.872 185.262 189.624V185.159H184.277V189.615C184.277 190.34 183.926 190.727 183.275 190.727C182.687 190.727 182.383 190.349 182.344 189.865L182.339 189.826H181.368L181.373 189.878C181.425 190.889 182.111 191.605 183.284 191.605ZM189.407 191.605C191.002 191.605 191.969 190.661 191.969 189.272V185.159H190.989V189.193C190.989 190.116 190.417 190.735 189.407 190.735C188.396 190.735 187.82 190.116 187.82 189.193V185.159H186.836V189.272C186.836 190.661 187.816 191.605 189.407 191.605ZM193.529 191.5H197.467V190.652H194.514V185.159H193.529V191.5Z" fill="#606C96"/>
<path d="M209.503 191.5H210.536L211.121 189.786H213.564L214.144 191.5H215.177L212.874 185.159H211.811L209.503 191.5ZM212.333 186.209H212.351L213.296 188.995H211.384L212.333 186.209ZM218.72 191.605C220.315 191.605 221.282 190.661 221.282 189.272V185.159H220.302V189.193C220.302 190.116 219.73 190.735 218.72 190.735C217.709 190.735 217.133 190.116 217.133 189.193V185.159H216.149V189.272C216.149 190.661 217.129 191.605 218.72 191.605ZM225.571 191.605C227.29 191.605 228.305 190.582 228.305 188.863V188.213H225.668V189.017H227.334V189.123C227.32 190.085 226.608 190.735 225.58 190.735C224.372 190.735 223.616 189.812 223.616 188.296V188.292C223.616 186.807 224.35 185.923 225.563 185.923C226.389 185.923 226.964 186.35 227.233 187.083L227.246 187.132H228.256L228.239 187.053C227.975 185.91 227.044 185.053 225.558 185.053C223.756 185.053 222.614 186.297 222.614 188.296V188.301C222.614 190.34 223.756 191.605 225.571 191.605Z" fill="#606C96"/>
<path d="M239.317 191.605C240.82 191.605 241.734 190.872 241.734 189.716V189.711C241.734 188.731 241.172 188.2 239.862 187.923L239.168 187.778C238.377 187.606 238.017 187.316 238.017 186.842V186.837C238.017 186.284 238.518 185.91 239.304 185.906C240.056 185.906 240.565 186.262 240.653 186.851L240.658 186.912H241.616L241.611 186.837C241.545 185.774 240.64 185.053 239.317 185.053C237.977 185.053 237.023 185.796 237.019 186.877V186.881C237.019 187.822 237.621 188.393 238.865 188.657L239.555 188.802C240.394 188.986 240.741 189.263 240.741 189.773V189.777C240.741 190.371 240.205 190.753 239.357 190.753C238.509 190.753 237.924 190.388 237.836 189.804L237.828 189.747H236.87L236.874 189.812C236.953 190.929 237.894 191.605 239.317 191.605ZM243.014 191.5H247.039V190.652H243.998V188.683H246.877V187.857H243.998V186.007H247.039V185.159H243.014V191.5ZM248.442 191.5H249.426V189.333H250.802C252.046 189.333 252.907 188.485 252.907 187.246V187.237C252.907 185.994 252.046 185.159 250.802 185.159H248.442V191.5ZM250.556 185.989C251.413 185.989 251.905 186.451 251.905 187.242V187.25C251.905 188.046 251.413 188.507 250.556 188.507H249.426V185.989H250.556Z" fill="#606C96"/>
<path d="M269.092 191.605C270.924 191.605 272.062 190.344 272.062 188.332V188.323C272.062 186.314 270.92 185.053 269.092 185.053C267.268 185.053 266.121 186.31 266.121 188.323V188.332C266.121 190.349 267.264 191.605 269.092 191.605ZM269.092 190.735C267.888 190.735 267.123 189.808 267.123 188.332V188.323C267.123 186.846 267.892 185.923 269.092 185.923C270.296 185.923 271.056 186.851 271.056 188.323V188.332C271.056 189.795 270.309 190.735 269.092 190.735ZM276.106 191.605C277.508 191.605 278.558 190.757 278.756 189.496L278.761 189.452H277.785L277.772 189.492C277.534 190.296 276.95 190.735 276.106 190.735C274.933 190.735 274.173 189.795 274.173 188.327V188.323C274.173 186.855 274.929 185.923 276.106 185.923C276.959 185.923 277.548 186.376 277.759 187.119L277.785 187.207H278.761L278.752 187.167C278.554 185.915 277.504 185.053 276.106 185.053C274.309 185.053 273.166 186.31 273.166 188.323V188.327C273.166 190.34 274.309 191.605 276.106 191.605ZM281.345 191.5H282.33V186.007H284.268V185.159H279.403V186.007H281.345V191.5Z" fill="#606C96"/>
<path d="M293.531 191.5H294.506V186.802H294.533L297.798 191.5H298.703V185.159H297.728V189.848H297.701L294.44 185.159H293.531V191.5ZM303.011 191.605C304.843 191.605 305.981 190.344 305.981 188.332V188.323C305.981 186.314 304.839 185.053 303.011 185.053C301.187 185.053 300.04 186.31 300.04 188.323V188.332C300.04 190.349 301.182 191.605 303.011 191.605ZM303.011 190.735C301.806 190.735 301.042 189.808 301.042 188.332V188.323C301.042 186.846 301.811 185.923 303.011 185.923C304.215 185.923 304.975 186.851 304.975 188.323V188.332C304.975 189.795 304.228 190.735 303.011 190.735ZM308.882 191.5H309.968L312.227 185.159H311.168L309.436 190.406H309.414L307.683 185.159H306.624L308.882 191.5Z" fill="#606C96"/>
<path d="M322.725 191.5H324.962C326.852 191.5 327.963 190.322 327.963 188.318V188.31C327.963 186.314 326.843 185.159 324.962 185.159H322.725V191.5ZM323.709 190.647V186.007H324.87C326.206 186.007 326.957 186.829 326.957 188.318V188.327C326.957 189.826 326.214 190.647 324.87 190.647H323.709ZM329.296 191.5H333.321V190.652H330.28V188.683H333.158V187.857H330.28V186.007H333.321V185.159H329.296V191.5ZM337.435 191.605C338.837 191.605 339.887 190.757 340.085 189.496L340.089 189.452H339.114L339.101 189.492C338.863 190.296 338.279 190.735 337.435 190.735C336.262 190.735 335.502 189.795 335.502 188.327V188.323C335.502 186.855 336.257 185.923 337.435 185.923C338.288 185.923 338.877 186.376 339.087 187.119L339.114 187.207H340.089L340.081 187.167C339.883 185.915 338.833 185.053 337.435 185.053C335.638 185.053 334.495 186.31 334.495 188.323V188.327C334.495 190.34 335.638 191.605 337.435 191.605Z" fill="#606C96"/>
<rect x="39.2554" y="83.5" width="10.0671" height="94" fill="#BED0FF"/>
<rect x="67.4434" y="26.5" width="10.0671" height="151" fill="#BED0FF"/>
<rect x="95.6309" y="26.5" width="10.0671" height="151" fill="#BED0FF"/>
<rect x="123.819" y="51.5" width="10.0671" height="126" fill="#BED0FF"/>
<rect x="152.007" y="51.5" width="10.0671" height="126" fill="#BED0FF"/>
<rect x="180.195" y="51.5" width="10.0671" height="126" fill="#BED0FF"/>
<rect x="208.382" y="132.5" width="10.0671" height="45" fill="#BED0FF"/>
<rect x="236.571" y="43.5" width="10.0671" height="134" fill="#BED0FF"/>
<rect x="264.758" y="76.5" width="10.0671" height="101" fill="#BED0FF"/>
<rect x="292.946" y="76.5" width="10.0671" height="101" fill="#BED0FF"/>
<rect x="321.134" y="76.5" width="10.0671" height="101" fill="#BED0FF"/>
<rect x="11" y="81" width="21" height="98" fill="url(#paint0_linear_0_204)"/>
<rect x="39" y="76" width="21" height="103" fill="url(#paint1_linear_0_204)"/>
<rect x="67" y="27" width="21" height="152" fill="url(#paint2_linear_0_204)"/>
<rect x="95" y="27" width="21" height="152" fill="url(#paint3_linear_0_204)"/>
<rect x="123" y="48" width="21" height="131" fill="url(#paint4_linear_0_204)"/>
<rect x="151" y="21" width="21" height="158" fill="url(#paint5_linear_0_204)"/>
<rect x="180" y="52" width="21" height="127" fill="url(#paint6_linear_0_204)"/>
<rect x="208" y="77" width="21" height="102" fill="url(#paint7_linear_0_204)"/>
<rect x="237" y="44" width="21" height="135" fill="url(#paint8_linear_0_204)"/>
<rect x="265" y="77" width="21" height="102" fill="url(#paint9_linear_0_204)"/>
<rect x="293" y="77" width="21" height="102" fill="url(#paint10_linear_0_204)"/>
<rect x="321" y="77" width="21" height="102" fill="url(#paint11_linear_0_204)"/>
<defs>
<linearGradient id="paint0_linear_0_204" x1="21.5" y1="81" x2="21.5" y2="179" gradientUnits="userSpaceOnUse">
<stop stop-color="#EBF0FF"/>
<stop offset="0.213542" stop-color="#EBF0FF"/>
<stop offset="0.213642" stop-color="#FFF1DC"/>
<stop offset="0.442708" stop-color="#FFF1DC"/>
<stop offset="0.442808" stop-color="#F2F0FF"/>
<stop offset="0.65625" stop-color="#F2F0FF"/>
<stop offset="0.65635" stop-color="#E1F6FF"/>
<stop offset="0.989583" stop-color="#E1F6FF"/>
</linearGradient>
<linearGradient id="paint1_linear_0_204" x1="49.5" y1="76" x2="49.5" y2="179" gradientUnits="userSpaceOnUse">
<stop stop-color="#EBF0FF"/>
<stop offset="0.213542" stop-color="#EBF0FF"/>
<stop offset="0.213642" stop-color="#FFF1DC"/>
<stop offset="0.442708" stop-color="#FFF1DC"/>
<stop offset="0.442808" stop-color="#F2F0FF"/>
<stop offset="0.65625" stop-color="#F2F0FF"/>
<stop offset="0.65635" stop-color="#E1F6FF"/>
<stop offset="0.989583" stop-color="#E1F6FF"/>
</linearGradient>
<linearGradient id="paint2_linear_0_204" x1="77.5" y1="27" x2="77.5" y2="179" gradientUnits="userSpaceOnUse">
<stop stop-color="#EBF0FF"/>
<stop offset="0.213542" stop-color="#EBF0FF"/>
<stop offset="0.213642" stop-color="#FFF1DC"/>
<stop offset="0.442708" stop-color="#FFF1DC"/>
<stop offset="0.442808" stop-color="#F2F0FF"/>
<stop offset="0.65625" stop-color="#F2F0FF"/>
<stop offset="0.65635" stop-color="#E1F6FF"/>
<stop offset="0.989583" stop-color="#E1F6FF"/>
</linearGradient>
<linearGradient id="paint3_linear_0_204" x1="105.5" y1="27" x2="105.5" y2="179" gradientUnits="userSpaceOnUse">
<stop stop-color="#EBF0FF"/>
<stop offset="0.213542" stop-color="#EBF0FF"/>
<stop offset="0.213642" stop-color="#FFF1DC"/>
<stop offset="0.442708" stop-color="#FFF1DC"/>
<stop offset="0.442808" stop-color="#F2F0FF"/>
<stop offset="0.65625" stop-color="#F2F0FF"/>
<stop offset="0.65635" stop-color="#E1F6FF"/>
<stop offset="0.989583" stop-color="#E1F6FF"/>
</linearGradient>
<linearGradient id="paint4_linear_0_204" x1="133.5" y1="48" x2="133.5" y2="179" gradientUnits="userSpaceOnUse">
<stop stop-color="#EBF0FF"/>
<stop offset="0.213542" stop-color="#EBF0FF"/>
<stop offset="0.213642" stop-color="#FFF1DC"/>
<stop offset="0.442708" stop-color="#FFF1DC"/>
<stop offset="0.442808" stop-color="#F2F0FF"/>
<stop offset="0.65625" stop-color="#F2F0FF"/>
<stop offset="0.65635" stop-color="#E1F6FF"/>
<stop offset="0.989583" stop-color="#E1F6FF"/>
</linearGradient>
<linearGradient id="paint5_linear_0_204" x1="161.5" y1="21" x2="161.5" y2="179" gradientUnits="userSpaceOnUse">
<stop stop-color="#EBF0FF"/>
<stop offset="0.213542" stop-color="#EBF0FF"/>
<stop offset="0.213642" stop-color="#FFF1DC"/>
<stop offset="0.442708" stop-color="#FFF1DC"/>
<stop offset="0.442808" stop-color="#F2F0FF"/>
<stop offset="0.65625" stop-color="#F2F0FF"/>
<stop offset="0.65635" stop-color="#E1F6FF"/>
<stop offset="0.989583" stop-color="#E1F6FF"/>
</linearGradient>
<linearGradient id="paint6_linear_0_204" x1="190.5" y1="52" x2="190.5" y2="179" gradientUnits="userSpaceOnUse">
<stop stop-color="#EBF0FF"/>
<stop offset="0.213542" stop-color="#EBF0FF"/>
<stop offset="0.213642" stop-color="#FFF1DC"/>
<stop offset="0.442708" stop-color="#FFF1DC"/>
<stop offset="0.442808" stop-color="#F2F0FF"/>
<stop offset="0.65625" stop-color="#F2F0FF"/>
<stop offset="0.65635" stop-color="#E1F6FF"/>
<stop offset="0.989583" stop-color="#E1F6FF"/>
</linearGradient>
<linearGradient id="paint7_linear_0_204" x1="218.5" y1="77" x2="218.5" y2="179" gradientUnits="userSpaceOnUse">
<stop stop-color="#EBF0FF"/>
<stop offset="0.213542" stop-color="#EBF0FF"/>
<stop offset="0.213642" stop-color="#FFF1DC"/>
<stop offset="0.442708" stop-color="#FFF1DC"/>
<stop offset="0.442808" stop-color="#F2F0FF"/>
<stop offset="0.65625" stop-color="#F2F0FF"/>
<stop offset="0.65635" stop-color="#E1F6FF"/>
<stop offset="0.989583" stop-color="#E1F6FF"/>
</linearGradient>
<linearGradient id="paint8_linear_0_204" x1="247.5" y1="44" x2="247.5" y2="179" gradientUnits="userSpaceOnUse">
<stop stop-color="#EBF0FF"/>
<stop offset="0.213542" stop-color="#EBF0FF"/>
<stop offset="0.213642" stop-color="#FFF1DC"/>
<stop offset="0.442708" stop-color="#FFF1DC"/>
<stop offset="0.442808" stop-color="#F2F0FF"/>
<stop offset="0.65625" stop-color="#F2F0FF"/>
<stop offset="0.65635" stop-color="#E1F6FF"/>
<stop offset="0.989583" stop-color="#E1F6FF"/>
</linearGradient>
<linearGradient id="paint9_linear_0_204" x1="275.5" y1="77" x2="275.5" y2="179" gradientUnits="userSpaceOnUse">
<stop stop-color="#EBF0FF"/>
<stop offset="0.213542" stop-color="#EBF0FF"/>
<stop offset="0.213642" stop-color="#FFF1DC"/>
<stop offset="0.442708" stop-color="#FFF1DC"/>
<stop offset="0.442808" stop-color="#F2F0FF"/>
<stop offset="0.65625" stop-color="#F2F0FF"/>
<stop offset="0.65635" stop-color="#E1F6FF"/>
<stop offset="0.989583" stop-color="#E1F6FF"/>
</linearGradient>
<linearGradient id="paint10_linear_0_204" x1="303.5" y1="77" x2="303.5" y2="179" gradientUnits="userSpaceOnUse">
<stop stop-color="#EBF0FF"/>
<stop offset="0.213542" stop-color="#EBF0FF"/>
<stop offset="0.213642" stop-color="#FFF1DC"/>
<stop offset="0.442708" stop-color="#FFF1DC"/>
<stop offset="0.442808" stop-color="#F2F0FF"/>
<stop offset="0.65625" stop-color="#F2F0FF"/>
<stop offset="0.65635" stop-color="#E1F6FF"/>
<stop offset="0.989583" stop-color="#E1F6FF"/>
</linearGradient>
<linearGradient id="paint11_linear_0_204" x1="331.5" y1="77" x2="331.5" y2="179" gradientUnits="userSpaceOnUse">
<stop stop-color="#EBF0FF"/>
<stop offset="0.213542" stop-color="#EBF0FF"/>
<stop offset="0.213642" stop-color="#FFF1DC"/>
<stop offset="0.442708" stop-color="#FFF1DC"/>
<stop offset="0.442808" stop-color="#F2F0FF"/>
<stop offset="0.65625" stop-color="#F2F0FF"/>
<stop offset="0.65635" stop-color="#E1F6FF"/>
<stop offset="0.989583" stop-color="#E1F6FF"/>
</linearGradient>
</defs>
</svg>
