<svg width="16" height="18" viewBox="0 0 16 18" fill="none" xmlns="http://www.w3.org/2000/svg">
<path d="M12.078 7.87471C10.3723 7.87471 8.98435 9.26262 8.98435 10.9683C8.98435 12.6741 10.3723 14.062 12.078 14.062C13.7837 14.062 15.1716 12.6741 15.1716 10.9683C15.1716 9.26262 13.7837 7.87471 12.078 7.87471ZM13.3896 10.472C12.4903 11.8211 12.7453 11.4386 12.2647 12.1594C12.092 12.4183 11.7425 12.487 11.4846 12.3151L10.6409 11.7527C10.3825 11.5804 10.3129 11.2313 10.4851 10.9726C10.6574 10.7142 11.0065 10.6446 11.2652 10.8168L11.6407 11.0671C12.5377 9.72171 12.4895 9.75894 12.6405 9.67288C13.1528 9.37653 13.7188 9.97747 13.3896 10.472ZM9.54683 14.3411V17.4369C9.54683 17.8678 10.0136 18.1394 10.3884 17.9252L12.078 16.9598L13.7675 17.9252C14.1408 18.1391 14.6091 17.869 14.6091 17.4369V14.3411C13.1106 15.4686 11.0476 15.4702 9.54683 14.3411ZM13.2029 6.90232V1.22163C13.2029 0.548066 12.6549 0 11.9813 0H2.05004C1.37647 0 0.828407 0.548066 0.828407 1.22163V14.2465C0.828407 14.9201 1.37647 15.4682 2.05004 15.4682H8.42188C8.42188 13.0477 8.41811 13.1975 8.43067 13.0861C6.5477 9.8579 9.54603 5.88677 13.2029 6.90232ZM4.20328 2.8124H8.98435C9.29513 2.8124 9.54683 3.06411 9.54683 3.37487C9.54683 3.68564 9.29513 3.93735 8.98435 3.93735H4.20328C3.89251 3.93735 3.6408 3.68564 3.6408 3.37487C3.6408 3.06411 3.89251 2.8124 4.20328 2.8124ZM7.01568 8.43719H4.20328C3.89251 8.43719 3.6408 8.18548 3.6408 7.87471C3.6408 7.56394 3.89251 7.31223 4.20328 7.31223H7.01568C7.32645 7.31223 7.57816 7.56394 7.57816 7.87471C7.57816 8.18548 7.32645 8.43719 7.01568 8.43719ZM4.20328 6.18727C3.89251 6.18727 3.6408 5.93556 3.6408 5.62479C3.6408 5.31402 3.89251 5.06231 4.20328 5.06231H8.98435C9.29513 5.06231 9.54683 5.31402 9.54683 5.62479C9.54683 5.93556 9.29513 6.18727 8.98435 6.18727H4.20328Z" fill="#55ADFF"/>
</svg>
