<svg width="16" height="18" viewBox="0 0 16 18" fill="none" xmlns="http://www.w3.org/2000/svg">
<path d="M15.5555 4.63318C15.534 4.15964 15.534 3.70762 15.534 3.25561C15.534 2.88969 15.2541 2.60987 14.8882 2.60987C12.1976 2.60987 10.1528 1.83498 8.45234 0.177578C8.19405 -0.0591928 7.8066 -0.0591928 7.54831 0.177578C5.84786 1.83498 3.80302 2.60987 1.11243 2.60987C0.746515 2.60987 0.466695 2.88969 0.466695 3.25561C0.466695 3.70762 0.466695 4.15964 0.44517 4.63318C0.359072 9.15336 0.229923 15.3525 7.78508 17.957L8.00033 18L8.21557 17.957C15.7492 15.3525 15.6416 9.17489 15.5555 4.63318ZM7.48373 10.8969C7.35459 11.0045 7.20391 11.0691 7.03172 11.0691H7.01019C6.83799 11.0691 6.6658 10.983 6.55817 10.8538L4.55638 8.63677L5.52499 7.77578L7.09629 9.51928L10.5833 6.20448L11.4658 7.15157L7.48373 10.8969Z" fill="#8B55FF"/>
</svg>
